<svg xmlns="http://www.w3.org/2000/svg" viewBox="0 0 120.0 120.0" width="120" height="120" role="img"><title>Przedszkole św. Jacka w Straszynie</title><defs><clipPath id="ikona-kolor-c1"><path d="M0 30C0 6 6 0 30 0h60c24 0 30 6 30 30v60c0 24-6 30-30 30H30C6 120 0 114 0 90z"/></clipPath></defs><g><path d="M0 30C0 6 6 0 30 0h60c24 0 30 6 30 30v60c0 24-6 30-30 30H30C6 120 0 114 0 90z" fill="#356a45"/><circle cx="33" cy="35" r="14" fill="#f4b13c"/><path d="M40.35 17.26L42.18 12.83M50.74 27.65L55.17 25.82M50.74 42.35L55.17 44.18M40.35 52.74L42.18 57.17M25.65 52.74L23.82 57.17M15.26 42.35L10.83 44.18M15.26 27.65L10.83 25.82M25.65 17.26L23.82 12.83" stroke-width="4.2" stroke-linecap="round" fill="none" stroke="#f4b13c" stroke-linejoin="round"/><circle cx="25.4" cy="38.4" r="1.9" fill="#f08a5d"/><circle cx="40.6" cy="38.4" r="1.9" fill="#f08a5d"/><path d="M26.00 33.50Q28.50 30.20 31.00 33.50M35.00 33.50Q37.50 30.20 40.00 33.50M27.80 38.40Q33.00 44.00 38.20 38.40" stroke-width="1.9" stroke-linecap="round" fill="none" stroke="#8a520c" stroke-linejoin="round"/><path d="M60 23 64.2 50V58L71 65V116H49V65L55.8 58V50Z" fill="#fffaf0"/><path d="M60 12.6V21.4M56.4 15.8H63.6" stroke-width="2.6" stroke-linecap="round" fill="none" stroke="#f4b13c" stroke-linejoin="round"/><circle cx="60" cy="76.5" r="4.2" fill="#356a45"/><path d="M-10 96C12 84 30 85 46 89 62 93 74 98 88 91 100 85 112 84 130 88V130H-10Z" fill="#7bbf6f" clip-path="url(#ikona-kolor-c1)"/><circle cx="32" cy="100.5" r="4.4" fill="#d24a39" clip-path="url(#ikona-kolor-c1)"/><circle cx="82" cy="100" r="4.4" fill="#e0a02b" clip-path="url(#ikona-kolor-c1)"/><circle cx="94" cy="95" r="4.4" fill="#3f7dae" clip-path="url(#ikona-kolor-c1)"/></g></svg>
